<svg viewBox="0 0 24 24" height="24" width="24" xmlns="http://www.w3.org/2000/svg">
  <g transform="translate(-163 -251)" data-sanitized-data-name="Group 22924" data-name="Group 22924" id="Group_22924">
    <path transform="translate(8329 14)" d="M-8150.163,249l.38,3.344,5.936-.76-.379-2.155-1.353-.317Z" data-sanitized-data-name="Path 57022" data-name="Path 57022" id="Path_57022"></path>
    <path transform="translate(8329 14)" d="M-8158.836,242.059v-2.572l-1.593-.357.247-1.593,1.346-.153,1.263.51,4.586-.357,2.115.357,1.345.709-.768.884h-.577l-1.1-.357h-2.856l-.8.357s-.438.659-.494.769a7.073,7.073,0,0,0-.166.824l.166.384Z" data-sanitized-data-name="Path 57021" data-name="Path 57021" id="Path_57021"></path>
    <path fill="#c4ffc2" transform="translate(176 268)" d="M0,0H9s.039,5.747-.562,6.4S.176,6.472.176,6.472Z" data-sanitized-data-name="Path 57020" data-name="Path 57020" id="Path_57020"></path>
    <path fill="#f7e7ac" transform="translate(165 257.841)" d="M6.5,0C10.09,0,13,3.841,13,8.58c0,2.616-.467,5.178-2.071,6.973A6.265,6.265,0,0,1,6.5,17.159c-3.59,0-6.5-3.841-6.5-8.58S2.91,0,6.5,0Z" data-sanitized-data-name="Path 57019" data-name="Path 57019" id="Path_57019"></path>
    <g transform="translate(102 73)" data-sanitized-data-name="Group 154" data-name="Group 154" id="Group_154">
      <path fill="none" transform="translate(61 178)" d="M0,0H24V24H0Z" data-sanitized-data-name="Path 118" data-name="Path 118" id="Path_118"></path>
      <g transform="translate(0.313)" data-sanitized-data-name="Group 153" data-name="Group 153" id="Group_153">
        <path transform="translate(3.776 127.625)" d="M78.974,66.5H73.148q-.015.376-.049.75h5.5v4.875a1.5,1.5,0,0,1-1.5,1.5h-5.25a1.493,1.493,0,0,1-.947-.338q-.224.3-.472.582a2.239,2.239,0,0,0,1.42.506H77.1a2.252,2.252,0,0,0,2.25-2.25v-5.25A.375.375,0,0,0,78.974,66.5ZM77.661,62H72.607q.11.372.2.75h4.857a1.126,1.126,0,0,1,1.125,1.125V65H73.131q.023.373.027.75h6a.375.375,0,0,0,.375-.375v-1.5A1.877,1.877,0,0,0,77.661,62Z" data-sanitized-data-name="Path 110" data-name="Path 110" id="Path_110"></path>
        <path transform="translate(53.688 178)" d="M19.1,7.263a.373.373,0,0,0,.027-.138v-1.5A1.126,1.126,0,0,0,18,4.5h-.527c0-.364-.025-1.22,0-1.543.011-.149.251-.365,1.329-.544a8.019,8.019,0,0,1,3.878.57.375.375,0,0,0,.437-.145c.184-.276.33-.476.448-.637.073-.1.134-.183.184-.257a.375.375,0,0,0,.005-.414A3.277,3.277,0,0,0,21.765.417a9.9,9.9,0,0,0-3.44-.145L18.1.291A10.234,10.234,0,0,1,14.756.206L14.612.169c-.584-.155-1.467-.387-2.021.273A1.545,1.545,0,0,0,12.432,2.3a2.172,2.172,0,0,0,1.434.682l0,1.523H13.5a1.126,1.126,0,0,0-1.125,1.125v1.5a.373.373,0,0,0,.027.138A10.689,10.689,0,0,0,9,15.533a10.751,10.751,0,0,0,3.237,8.147,1.306,1.306,0,0,0,.849.32h5.326a1.306,1.306,0,0,0,.849-.32A10.751,10.751,0,0,0,22.5,15.533a10.689,10.689,0,0,0-3.4-8.27ZM13.032,1.846a.81.81,0,0,1,.133-.921c.23-.274.7-.176,1.255-.03a7.588,7.588,0,0,0,1.835.239c.711.008,1.421-.057,2.129-.114a9.308,9.308,0,0,1,3.185.121,3.488,3.488,0,0,1,1.394.608l-.006.008c-.085.116-.185.253-.3.423a8.323,8.323,0,0,0-3.978-.507c-.612.1-1.885.313-1.953,1.228-.027.362,0,1.245,0,1.6H14.617l0-1.884a.385.385,0,0,0-.4-.374,1.7,1.7,0,0,1-1.183-.4Zm.093,3.779A.376.376,0,0,1,13.5,5.25H18a.376.376,0,0,1,.375.375V6.75h-5.25Zm5.648,17.486a.556.556,0,0,1-.36.139H13.087a.556.556,0,0,1-.361-.139A10.142,10.142,0,0,1,9.75,15.533c0-3.581,1.473-6.667,3.578-8.033h2.048v3.562a.375.375,0,0,0,.75,0V7.5h2.048c2.1,1.365,3.578,4.451,3.578,8.033a10.143,10.143,0,0,1-2.977,7.578Zm7.477-3.049a1.688,1.688,0,1,0-1.688,1.688A1.688,1.688,0,0,0,26.25,20.062Zm-2.625,0a.938.938,0,1,1,.938.937.938.938,0,0,1-.938-.937Z" data-sanitized-data-name="Path 111" data-name="Path 111" id="Path_111"></path>
        <path transform="translate(35.813 125.187)" d="M33.625,65C32.178,65,31,66.514,31,68.375s1.178,3.375,2.625,3.375,2.625-1.514,2.625-3.375S35.073,65,33.625,65Zm0,6c-1.034,0-1.875-1.177-1.875-2.625s.841-2.625,1.875-2.625S35.5,66.928,35.5,68.375,34.659,71,33.625,71Z" data-sanitized-data-name="Path 112" data-name="Path 112" id="Path_112"></path>
      </g>
    </g>
  </g>
</svg>
