<svg xmlns="http://www.w3.org/2000/svg" class="hidden">
    <symbol id="icon-cart" fill="none" viewBox="0 0 24 24">
      <path d="M16 10V6a4 4 0 0 0-8 0v4" fill="none" stroke="currentColor" stroke-linecap="round" stroke-linejoin="round" vector-effect="non-scaling-stroke"/>
      <path class="icon-fill" d="M20.46 15.44 18.39 21a1.39 1.39 0 0 1-1.27.93H6.88A1.39 1.39 0 0 1 5.61 21l-2.07-5.56-1.23-3.26c-.12-.34-.23-.62-.32-.85a17.28 17.28 0 0 1 20 0c-.09.23-.2.51-.32.85Z" fill="none"/>
      <path d="M20.46 15.44 18.39 21a1.39 1.39 0 0 1-1.27.93H6.88A1.39 1.39 0 0 1 5.61 21l-2.07-5.56-1.23-3.26c-.12-.34-.23-.62-.32-.85a17.28 17.28 0 0 1 20 0c-.09.23-.2.51-.32.85Z" fill="none" stroke="currentColor" stroke-miterlimit="10" vector-effect="non-scaling-stroke"/>
    </symbol>
  <symbol id="icon-close" fill="none" viewBox="0 0 12 12">
    <path d="M1 1L11 11" stroke="currentColor" stroke-linecap="round" fill="none"/>
    <path d="M11 1L1 11" stroke="currentColor" stroke-linecap="round" fill="none"/>
  </symbol>
  <symbol id="icon-search" fill="none" viewBox="0 0 15 17">
    <circle cx="7.11113" cy="7.11113" r="6.56113" stroke="currentColor" fill="none"/>
    <path d="M11.078 12.3282L13.8878 16.0009" stroke="currentColor" stroke-linecap="round" fill="none"/>
  </symbol>
</svg>