<svg id="Isolation_Mode" data-name="Isolation Mode" xmlns="http://www.w3.org/2000/svg" viewBox="0 0 171.14 127.78">
  <defs>
    <style>
      .cls-1 {
        fill: #e2e2e2;
        stroke-width: 0px;
      }

      .cls-2 {
        fill: #2d2f33;
      }

      .cls-2, .cls-3, .cls-4 {
        stroke: #2d2f33;
        stroke-width: 3px;
      }

      .cls-2, .cls-4 {
        stroke-miterlimit: 10;
      }

      .cls-3 {
        stroke-linecap: round;
        stroke-linejoin: round;
      }

      .cls-3, .cls-4 {
        fill: none;
      }
    </style>
  </defs>
  <path class="cls-1" d="m140.27,25.83l.04.02c-3.12-1.86-3.49-2.11-4.72-2.5l-.77-.16c-5.65-.74-13.57,6.96-20.58,18.96-3.15,6.02-9.21,21.29-11.41,38.95-4.04-1.92-8.57-3-13.35-3s-9.3,1.08-13.35,3c-2.2-17.66-8.26-32.93-11.41-38.95-7.01-12-14.92-19.71-20.58-18.96l-.77.16c-1.23.39-1.6.64-4.72,2.5l.04-.02c-17.95,10.37-27,20.67-22.5,25.51,2.99,3.22,11.96,2.96,23.52-.03h0c4.27,20.25,14.16,34.19,22.56,42.86h-.01c-2.47,4.45-3.87,9.58-3.87,15.04,0,2.51.33,4.94.89,7.27l.04.17c1.26-.29,2.64-.58,4.07-.87.78-.15,1.58-.31,2.4-.45.25-.04.49-.09.74-.13.86-.15,1.75-.3,2.66-.44.21-.03.42-.07.64-.1,1.01-.15,2.04-.3,3.1-.43.14-.02.27-.04.4-.05,1.19-.15,2.41-.29,3.66-.41,7.45-.74,15.92-.98,24.98-.18,0,0,0,0,0,.01,2.03.18,4.1.42,6.18.71.41.06.82.11,1.24.18.82.12,1.64.26,2.47.4.56.1,1.12.2,1.68.3.77.14,1.54.29,2.31.45,1.28.27,2.57.54,3.87.86h0c.56-2.34.89-4.77.89-7.28,0-5.46-1.4-10.58-3.87-15.04h-.01c8.4-8.66,18.28-22.61,22.56-42.84h0c11.55,2.97,20.53,3.23,23.52.01,4.5-4.85-4.55-15.14-22.5-25.51Z"/>
  <g>
    <circle class="cls-3" cx="90.04" cy="34.17" r="4.5"/>
    <circle class="cls-3" cx="22.17" cy="89.68" r="4.5"/>
  </g>
  <path class="cls-1" d="m153.84,89.68c0,1.7-1.38,3.08-3.08,3.08s-3.08-1.38-3.08-3.08,1.38-3.08,3.08-3.08,3.08,1.38,3.08,3.08Z"/>
  <path class="cls-1" d="m65.5,10.79c0,1.7-1.38,3.08-3.08,3.08s-3.08-1.38-3.08-3.08,1.38-3.08,3.08-3.08,3.08,1.38,3.08,3.08Z"/>
  <g>
    <path class="cls-4" d="m116.16,112.79c.56-2.34.89-4.76.89-7.27,0-17.18-13.93-31.11-31.11-31.11s-31.11,13.93-31.11,31.11c0,2.51.33,4.94.89,7.27"/>
    <path class="cls-2" d="m71.41,100.05c0,1.56.86,2.83,1.91,2.83s1.91-1.27,1.91-2.83-.86-2.83-1.91-2.83-1.91,1.27-1.91,2.83Z"/>
    <path class="cls-2" d="m100.49,100.05c0,1.56-.86,2.83-1.91,2.83s-1.91-1.27-1.91-2.83.86-2.83,1.91-2.83,1.91,1.27,1.91,2.83Z"/>
    <path class="cls-4" d="m89.73,109.41l.11-.11c1.58-1.57.47-4.26-1.75-4.26h-4.28c-2.22,0-3.33,2.69-1.75,4.26l.17.17"/>
    <path class="cls-4" d="m131.28,19.49c-5.65-.74-13.57,6.96-20.58,18.96,22.34,10.37,43.59,14.51,48.53,9.18,4.5-4.85-4.55-15.14-22.5-25.51l.04.02c-3.12-1.86-3.49-2.11-4.72-2.5l-.77-.16Z"/>
    <path class="cls-4" d="m113.17,90.48c8.4-8.67,18.28-22.62,22.56-42.85"/>
    <path class="cls-4" d="m110.7,38.46c-3.15,6.02-9.21,21.29-11.41,38.95"/>
    <path class="cls-4" d="m108.71,84.32c5.79-4.49,18.55-16.54,22.76-37.87"/>
    <path class="cls-4" d="m115.12,40.43c-2.73,5.78-10.08,23.19-9.66,40.85"/>
    <path class="cls-4" d="m40.61,19.49c5.65-.74,13.57,6.96,20.58,18.96-22.34,10.37-43.59,14.51-48.53,9.18-4.5-4.85,4.55-15.14,22.5-25.51l-.04.02c3.12-1.86,3.49-2.11,4.72-2.5l.77-.16Z"/>
    <path class="cls-4" d="m58.73,90.48c-8.4-8.67-18.28-22.62-22.56-42.85"/>
    <path class="cls-4" d="m61.19,38.46c3.15,6.02,9.21,21.29,11.41,38.95"/>
    <path class="cls-4" d="m63.19,84.32c-5.79-4.49-18.55-16.54-22.76-37.87"/>
    <path class="cls-4" d="m56.78,40.43c2.73,5.78,10.08,23.18,9.66,40.84"/>
    <path class="cls-4" d="m43.78,116.41s41.02-15.81,84.34,0"/>
    <line class="cls-4" x1="96.04" y1="107.74" x2="135.73" y2="99.97"/>
    <line class="cls-4" x1="105.55" y1="110.73" x2="136.3" y2="107.81"/>
    <line class="cls-4" x1="75.85" y1="107.74" x2="36.17" y2="99.97"/>
    <line class="cls-4" x1="67.27" y1="110.81" x2="35.6" y2="107.81"/>
  </g>
</svg>