<svg viewBox="0 0 24 24" height="24" width="24" xmlns="http://www.w3.org/2000/svg">
  <g transform="translate(-61 -178)" data-name="Group 152" id="Group_152">
    <rect fill="none" transform="translate(61 178)" height="24" width="24" data-name="Rectangle 216" id="Rectangle_216"></rect>
    <g transform="translate(67 179)" id="noun-skin-care-1441783">
      <g transform="translate(0 0)" data-name="Group 46" id="Group_46">
        <path stroke-width="0.3" stroke="#000" transform="translate(-229.761 -55.991)" d="M231.707,78.443h8.146A1.948,1.948,0,0,0,241.8,76.5V64.777a1.948,1.948,0,0,0-1.945-1.946h-.925v-1.3A1.634,1.634,0,0,0,237.3,59.9h-.414V57.856h.359c.62-.024,2.3.108,2.664.961a.28.28,0,0,0,.258.171h1.277a.281.281,0,0,0,.272-.211,1.83,1.83,0,0,0-.8-1.726A5.824,5.824,0,0,0,237.23,56h-3.925a.28.28,0,0,0-.28.28v1.3a.28.28,0,0,0,.28.28h1.373V59.9h-.414a1.634,1.634,0,0,0-1.633,1.633v1.3h-.925a1.948,1.948,0,0,0-1.945,1.946V76.5a1.948,1.948,0,0,0,1.946,1.946Zm1.879-21.887h3.661a5.356,5.356,0,0,1,3.3.916,1.658,1.658,0,0,1,.617.954h-.829c-.713-1.2-3.01-1.136-3.1-1.132h-3.644v-.738Zm1.654,1.3h1.081V59.9H235.24Zm-2.047,3.677a1.073,1.073,0,0,1,1.072-1.072H237.3a1.073,1.073,0,0,1,1.072,1.072v1.3h-5.175Zm-1.486,1.859h8.146a1.386,1.386,0,0,1,1.385,1.385v3.141a23.655,23.655,0,0,1-5.46-.555,24.08,24.08,0,0,0-5.456-.566V64.776a1.386,1.386,0,0,1,1.385-1.385Zm-1.385,3.967a23.58,23.58,0,0,1,5.344.554,24.143,24.143,0,0,0,5.573.566V76.5a1.386,1.386,0,0,1-1.385,1.385h-8.146a1.386,1.386,0,0,1-1.385-1.385v-9.14Z" data-name="Path 28" id="Path_28"></path>
      </g>
    </g>
  </g>
</svg>
