<svg id="Isolation_Mode" data-name="Isolation Mode" xmlns="http://www.w3.org/2000/svg" viewBox="0 0 148.19 134.04">
  <defs>
    <style>
      .cls-1 {
        opacity: .25;
      }

      .cls-1, .cls-2, .cls-3 {
        stroke-width: 2px;
      }

      .cls-1, .cls-2, .cls-3, .cls-4, .cls-5 {
        stroke: #2d2f33;
      }

      .cls-1, .cls-2, .cls-4, .cls-5 {
        fill: none;
      }

      .cls-1, .cls-4 {
        stroke-linecap: round;
        stroke-linejoin: round;
      }

      .cls-2, .cls-3, .cls-5 {
        stroke-miterlimit: 10;
      }

      .cls-6 {
        fill: #e2e2e2;
      }

      .cls-6, .cls-7 {
        stroke-width: 0px;
      }

      .cls-7, .cls-3 {
        fill: #2d2f33;
      }

      .cls-4, .cls-5 {
        stroke-width: 3px;
      }
    </style>
  </defs>
  <g>
    <path class="cls-6" d="m137.07,81.22c0-19.6-11.48-37.45-29.27-45.5h-40.12c-17.78,8.05-29.27,25.89-29.27,45.5s10.44,35.98,27.26,44.53h44.14c16.82-8.55,27.26-25.6,27.26-44.53Z"/>
    <g>
      <path class="cls-7" d="m94.94,106.42l-.26-.02c-5.83-.56-11.08-3.69-14.19-8.44-3.21,5.22-8.83,8.34-14.77,8.14h-.26s-.11-.24-.11-.24c-2.43-5.33-2.34-11.44.21-16.51-6.15-.17-11.65-3.48-14.44-8.72l-.12-.23.15-.21c3.4-4.77,8.74-7.75,14.4-8.07-2.93-5.41-2.82-11.81.34-16.87l.14-.22.26.02c5.77.55,10.99,3.64,14.11,8.32h0s0,0,0,0c.78-1.26,1.72-2.41,2.79-3.42,0,0,0,0,.01,0,.95-.9,2.02-1.69,3.16-2.35l.25-.14c2.52-1.4,5.38-2.14,8.25-2.14h.24l.03.04h.35s.11.25.11.25c.92,2.02,1.55,4.17,1.81,6.23h0c.06.47.1.94.13,1.42h0c.01.27.02.54.02.81,0,2.81-.69,5.57-2.01,8.03h.02,0c6.01.22,11.39,3.45,14.14,8.54l.11.21-.12.2c-3.03,5.02-8.33,8.1-14.28,8.3,2.93,5.41,2.81,11.8-.35,16.85l-.14.22Zm-13.97-9.28c2.89,4.66,7.92,7.78,13.54,8.39,2.94-4.88,2.93-11.03-.03-16.18-4.71-.08-9.03-2.03-12.11-5.38,1.33,4.31.86,9.01-1.4,13.16Zm-14.96,8.13c5.67.09,11.03-3.01,13.99-8.11-2.38-4.1-2.86-8.72-1.44-13.13-3.06,3.27-7.35,5.2-12.05,5.32-2.59,4.83-2.78,10.75-.5,15.92Zm14.48-23.67c-2.51,4.79-2.52,10.07-.02,14.69,2.38-4.71,2.39-10.1.02-14.69Zm3.73-.87c4.41,1,8.26,3.76,10.73,7.8,5.76-.06,10.94-2.92,13.92-7.7-2.75-4.91-7.88-7.85-13.78-7.89-.21.34-.43.68-.66,1-2.03,2.84-4.87,4.98-8.08,6.16-.69.25-1.4.46-2.12.63Zm-32.23-.27c2.75,4.97,8.09,8.04,14.02,8.06,2.35-4.11,6.12-6.84,10.65-7.81-4.37-1.02-8.18-3.76-10.63-7.77-5.48.17-10.7,2.97-14.04,7.53Zm29.25.7c2.81,4.39,7.47,7.09,12.71,7.34-2.88-4.41-7.55-7.11-12.71-7.34Zm-1.51,0c-5.41.22-9.98,2.86-12.73,7.33,5.27-.29,9.94-2.98,12.73-7.33Zm-12.71-8.23c2.89,4.42,7.55,7.12,12.72,7.36-2.89-4.56-7.47-7.21-12.72-7.36Zm27.06.02c-5.32.27-10.03,2.96-12.83,7.34,1.72-.08,3.4-.44,4.98-1.04,2.95-1.13,5.57-3.1,7.45-5.71.14-.19.27-.39.4-.58Zm-13.64-7.91c-2.35,4.65-2.33,10.2.05,14.81,2.54-4.84,2.52-10.17-.05-14.81Zm.47-.86c2.44,4.12,2.95,8.79,1.51,13.24,3.09-3.3,7.43-5.23,12.18-5.33,1.4-2.44,2.14-5.22,2.14-8.04,0-.26,0-.51-.02-.77h0c-.02-.45-.06-.9-.12-1.35h0c-.27-2.03-.91-3.97-1.91-5.76-2.59.01-5.37.74-7.66,2h0l-.24.14c-1.09.63-2.11,1.38-3.02,2.24,0,0,0,0,0,0-1.12,1.06-2.09,2.27-2.87,3.61Zm-14.35,7.91c4.71,0,8.94,1.9,12.04,5.32-1.32-4.35-.88-9.14,1.34-13.22-2.9-4.6-7.9-7.67-13.47-8.28-2.94,4.87-2.92,11.03.03,16.17h.06Z"/>
      <path class="cls-7" d="m95.46,107.48l-.87-.08c-5.58-.53-10.73-3.37-14.07-7.68-3.49,4.78-9.04,7.58-14.83,7.38l-.88-.03-.37-.79c-2.33-5.1-2.45-10.99-.39-16.03-5.9-.63-11.1-4.05-13.81-9.16l-.41-.77.51-.72c3.25-4.56,8.28-7.61,13.68-8.34-2.4-5.42-2.05-11.63,1.02-16.54l.46-.74.87.08c5.47.52,10.56,3.27,13.89,7.46l.1-.17.1.17c.61-.82,1.3-1.58,2.04-2.29,1.02-.96,2.15-1.8,3.36-2.5l.26-.15c2.68-1.49,5.7-2.27,8.74-2.27h.75l.04.06.49.02.37.8c.96,2.11,1.62,4.36,1.89,6.52.07.49.11,1,.13,1.5.01.29.02.57.02.85,0,2.41-.49,4.82-1.43,7.03h.15l-.08.14c5.69.7,10.72,4.02,13.38,8.93l.39.71-.42.7c-2.93,4.85-7.93,8.02-13.59,8.67,2.38,5.41,2.02,11.6-1.04,16.49l-.47.74Zm-13.33-10.38c2.65,3.95,7,6.66,11.84,7.37,2.33-4.3,2.29-9.61-.1-14.12-3.65-.18-7.06-1.41-9.89-3.55.42,3.49-.21,7.04-1.86,10.3Zm-14.99-6.77c-2.1,4.27-2.26,9.39-.46,13.94,4.89-.15,9.46-2.82,12.17-7.13-1.73-3.22-2.39-6.77-1.94-10.3-2.8,2.07-6.16,3.28-9.77,3.49Zm13.34-6.22c-1.16,3.22-1.17,6.56-.03,9.7,1.09-3.19,1.1-6.56.03-9.7Zm6.99-3.37c3.25,1.38,6.02,3.72,8.02,6.78,4.98-.22,9.47-2.69,12.2-6.72-2.54-4.13-6.98-6.65-12.07-6.85-.13.19-.26.38-.39.57-1.97,2.77-4.64,4.9-7.77,6.21Zm-34.27-.19c2.56,4.16,7.16,6.78,12.26,6.97,1.92-3.11,4.67-5.46,7.95-6.83-3.19-1.39-5.93-3.7-7.91-6.72-4.74.32-9.27,2.73-12.3,6.57Zm30.24,1.9c2.16,2.48,5.04,4.15,8.28,4.79-2.2-2.49-5.08-4.16-8.28-4.79Zm-5.88-.03c-3.37.6-6.27,2.26-8.41,4.82,3.31-.65,6.24-2.33,8.41-4.82Zm-8.37-8.25c2.21,2.54,5.13,4.24,8.38,4.87-2.21-2.62-5.09-4.29-8.38-4.87Zm22.64.08c-3.29.65-6.2,2.31-8.38,4.78.82-.17,1.62-.4,2.41-.7,2.3-.88,4.33-2.27,5.96-4.08Zm-11.34-6.71c-1.07,3.19-1.06,6.66.02,9.83,1.18-3.27,1.18-6.65-.02-9.83Zm1.58-3.33c1.78,3.25,2.47,6.85,2,10.42,2.83-2.1,6.26-3.32,9.93-3.5,1.14-2.17,1.74-4.6,1.74-7.06,0-.24,0-.48-.02-.72-.02-.43-.06-.85-.11-1.27-.22-1.7-.73-3.34-1.5-4.87-2.25.11-4.62.77-6.58,1.86l-.23.13c-1,.58-1.94,1.27-2.79,2.06l-.1.1c-.89.85-1.68,1.81-2.33,2.85Zm-14.97,6.9c3.65.11,7.06,1.32,9.89,3.48-.42-3.52.2-7.14,1.79-10.32-2.65-3.89-6.98-6.56-11.77-7.26-2.32,4.29-2.29,9.59.09,14.1Z"/>
    </g>
    <path class="cls-3" d="m103.61,126.15h-45.37l-.12-.06c-17.68-8.79-28.66-26.46-28.66-46.11s12.07-38.83,30.74-47.09l.23-.05h41.11l.11.05c18.68,8.26,30.74,26.75,30.74,47.09s-10.98,37.32-28.66,46.11l-.12.06Zm-45.1-1.15h44.83c17.22-8.62,27.91-25.86,27.91-45.03s-11.75-37.89-29.95-46h-40.75c-18.2,8.11-29.95,26.15-29.95,46s10.69,36.41,27.91,45.03Z"/>
    <rect class="cls-5" x="68.75" y="14.24" width="24.23" height="10.21"/>
    <rect class="cls-2" x="74.54" y="24.45" width="12.85" height="5.25"/>
  </g>
  <line class="cls-1" x1="37.72" y1="7.38" x2="63.29" y2="15.61"/>
  <line class="cls-1" x1="37.37" y1="18.16" x2="63.01" y2="19.28"/>
  <line class="cls-1" x1="37.07" y1="27.22" x2="63.4" y2="24.07"/>
  <g>
    <g>
      <path class="cls-4" d="m24.94,111.93c0,2.5-2.03,4.53-4.53,4.53s-4.53-2.03-4.53-4.53,2.03-4.53,4.53-4.53,4.53,2.03,4.53,4.53Z"/>
      <path class="cls-4" d="m133.2,29.58c0,2.5-2.03,4.53-4.53,4.53s-4.53-2.03-4.53-4.53,2.03-4.53,4.53-4.53,4.53,2.03,4.53,4.53Z"/>
    </g>
    <g>
      <circle class="cls-6" cx="118.8" cy="126.15" r="3.1"/>
      <path class="cls-6" d="m23.94,47.53c0,1.71-1.39,3.1-3.1,3.1s-3.1-1.39-3.1-3.1,1.39-3.1,3.1-3.1,3.1,1.39,3.1,3.1Z"/>
    </g>
  </g>
</svg>