<svg viewBox="0 0 24 24" height="24" width="24" xmlns="http://www.w3.org/2000/svg">
  <g transform="translate(-61 -178)" data-name="Group 151" id="Group_151">
    <rect fill="none" transform="translate(61 178)" height="24" width="24" data-name="Rectangle 214" id="Rectangle_214"></rect>
    <path stroke-width="0.4" stroke="#000" transform="translate(-191.238 86.177)" d="M267.532,95.446a3.014,3.014,0,0,0,3.086,2.49,2.821,2.821,0,1,0,0-5.613,3.015,3.015,0,0,0-3.086,2.49h-1.124v-1.22a1.3,1.3,0,0,0-1.32-1.267h-1.217a1.3,1.3,0,0,0-1.32,1.267V97.2a1.281,1.281,0,0,0-1.121,1.264v.829a8.737,8.737,0,0,0-.251,16.281.319.319,0,0,0,.12.023h6.363a.318.318,0,0,0,.12-.023,8.737,8.737,0,0,0-.251-16.281v-.829a1.281,1.281,0,0,0-1.121-1.264V95.446h1.123Zm3.086-2.49a2.192,2.192,0,1,1-2.474,2.174A2.341,2.341,0,0,1,270.618,92.956Zm-6.747,0h1.217a.663.663,0,0,1,.687.634v3.589h-2.591v-3.59a.663.663,0,0,1,.687-.634Zm8.717,14.52a8.08,8.08,0,0,1-4.99,7.485h-6.237a8.108,8.108,0,0,1,.415-15.129h5.408a8.113,8.113,0,0,1,5.4,7.644ZM266.9,98.463V99.2h-4.834v-.738a.652.652,0,0,1,.655-.648h3.524a.653.653,0,0,1,.655.648Z" data-name="Path 54" id="Path_54"></path>
  </g>
</svg>
