<svg viewBox="0 0 24 24" height="24" width="24" xmlns="http://www.w3.org/2000/svg">
  <g transform="translate(6534.864 -392)" data-sanitized-data-name="Group 22919" data-name="Group 22919" id="Group_22919">
    <g data-sanitized-data-name="Group 22890" data-name="Group 22890" id="Group_22890">
      <path fill="#090909" transform="translate(-6527 411)" d="M-.17-.1H15.208a10.554,10.554,0,0,1-2.07,2.746C12.229,3.256-.17,2.96-.17,2.96Z" data-sanitized-data-name="Path 56543" data-name="Path 56543" id="Path_56543"></path>
      <path fill="#daf5ff" transform="translate(-6529 394)" d="M8,.784a7.655,7.655,0,0,1,7.212,7.533A7.665,7.665,0,0,1,7.5,16.207,7.636,7.636,0,0,1-.175,8.317C-.175,3.9,4.394.5,8,.784Z" data-sanitized-data-name="Path 56542" data-name="Path 56542" id="Path_56542"></path>
      <g transform="translate(-6543.588 392)" id="cosmetics_130298">
        <path transform="translate(9.588 12)" d="M0,0H6L5.969,11.278h-6Z" data-sanitized-data-name="Path 56539" data-name="Path 56539" id="Path_56539"></path>
        <path transform="translate(0 -29.11)" d="M15.432,40.233h-.274V38.109a.467.467,0,0,0-.477-.456H14.64V33.307a.454.454,0,0,0-.264-.408l-3.692-1.764a.5.5,0,0,0-.464.02.452.452,0,0,0-.226.388v6.11H9.953a.467.467,0,0,0-.477.456v2.124H9.2a.467.467,0,0,0-.477.456V52.654a.467.467,0,0,0,.477.456h6.231a.467.467,0,0,0,.477-.456V40.689A.467.467,0,0,0,15.432,40.233Zm-4.484-7.952,2.738,1.308v4.064H10.948V32.281Zm-.518,6.284H14.2v1.668H10.43ZM14.955,52.2H9.678V41.144h5.276Z" data-sanitized-data-name="Path 133" data-name="Path 133" id="Path_133"></path>
        <path transform="translate(-109.826 -285.947)" d="M142.073,304.276H126.578a.477.477,0,1,0,0,.954h14.736l-.109.227a3.639,3.639,0,0,1-3.261,2.05H126.578a.477.477,0,1,0,0,.954h11.366a4.6,4.6,0,0,0,4.121-2.59l.438-.911a.477.477,0,0,0-.43-.684Z" data-sanitized-data-name="Path 134" data-name="Path 134" id="Path_134"></path>
        <path transform="translate(-88.839)" d="M104.49,3.508a9.6,9.6,0,1,1,12.67,14.417.477.477,0,1,0,.612.732A10.554,10.554,0,1,0,103.841,2.808a.477.477,0,1,0,.648.7Z" data-sanitized-data-name="Path 135" data-name="Path 135" id="Path_135"></path>
        <path transform="translate(-93.584 -29.21)" d="M115.754,32.148a7.615,7.615,0,1,1-5.1,13.272.477.477,0,1,0-.639.708,8.569,8.569,0,1,0-1.168-11.439.477.477,0,1,0,.768.566A7.65,7.65,0,0,1,115.754,32.148Z" data-sanitized-data-name="Path 136" data-name="Path 136" id="Path_136"></path>
        <path transform="translate(-143.686 -98.426)" d="M171.078,104.777l-8.706,8.706a.477.477,0,0,0,.675.675l8.706-8.706a.477.477,0,1,0-.675-.675Z" data-sanitized-data-name="Path 137" data-name="Path 137" id="Path_137"></path>
        <path transform="translate(-182.707 -131.307)" d="M204.05,146.347a.477.477,0,0,0,.675.675l6.536-6.536a.477.477,0,1,0-.675-.675Z" data-sanitized-data-name="Path 138" data-name="Path 138" id="Path_138"></path>
      </g>
      <path fill="#ff3d3d" transform="translate(-6533 395)" d="M0,0,3.275,1.422v4.4H0Z" data-sanitized-data-name="Path 56540" data-name="Path 56540" id="Path_56540"></path>
      <path fill="#1e1e1e" transform="translate(-6533 401)" d="M-.456.163H3.932v2.05H-.456Z" data-sanitized-data-name="Path 56541" data-name="Path 56541" id="Path_56541"></path>
    </g>
  </g>
</svg>
