<svg xmlns="http://www.w3.org/2000/svg" data-v-08302356=""><g data-v-08302356=""><path data-v-08302356="" d="m436 0c-8.291 0-15 6.709-15 15v30c0 8.291 6.709 15 15 15h30c8.291 0 15-6.709 15-15s-6.709-15-15-15h-15v-15c0-8.291-6.709-15-15-15z"/><path data-v-08302356="" d="m497 150h-31c-8.291 0-15 6.709-15 15v30c0 8.291 6.709 15 15 15s15-6.709 15-15v-15h16c8.291 0 15-6.709 15-15s-6.709-15-15-15z"/><path data-v-08302356="" d="m369.298 30.864c-5.667-15.569-22.883-23.597-38.452-17.93l-84.573 30.782-5.131-14.095c-8.5-23.353-34.323-35.396-57.676-26.895l-56.382 20.521c-23.353 8.5-35.394 34.323-26.895 57.676l5.131 14.095-85.573 30.782c-15.569 5.667-23.597 22.883-17.93 38.452l5.129 14.095c2.834 7.784 11.442 11.797 19.226 8.965l339.29-123.126c7.786-2.833 11.799-11.44 8.965-19.226zm-240.917 39.8c-2.834-7.786 1.179-16.393 8.965-19.226l56.382-20.522c7.784-2.833 16.392 1.181 19.224 8.967l5.131 14.095-84.571 30.78z"/><path data-v-08302356="" d="m217.407 150h171.788c-2.921-19.894-10.876-38.652-23.99-53.784z"/><path data-v-08302356="" d="m63.625 205.597 26.433 292.766c.704 7.719 8.178 13.637 15.942 13.637h240c7.764 0 14.238-5.918 14.941-13.638l28.761-318.362h-254.737zm231.735 33.041c.762-8.232 7.954-14.443 16.304-13.579 8.247.747 14.326 8.057 13.579 16.304l-19.102 212c-.767 8.313-8.154 14.343-16.304 13.579-8.247-.747-14.326-8.057-13.579-16.304zm-84.36 1.362c0-8.291 6.709-15 15-15s15 6.709 15 15v212c0 8.291-6.709 15-15 15s-15-6.709-15-15zm-54.361-1.362 19.102 212c.747 8.247-5.332 15.557-13.579 16.304-8.148.764-15.536-5.262-16.304-13.579l-19.102-212c-.747-8.247 5.332-15.557 13.579-16.304 8.555-.821 15.543 5.346 16.304 13.579z"/></g></svg>