<svg viewBox="0 0 24 24" height="24" width="24" xmlns="http://www.w3.org/2000/svg">
  <g transform="translate(-61 -178)" data-name="Group 148" id="Group_148">
    <path transform="translate(61 178)" d="M12,0A12,12,0,1,1,0,12,12,12,0,0,1,12,0Z" data-name="Path 57" id="Path_57"></path>
    <path stroke-width="1" stroke="#fff" fill="none" transform="translate(68.5 181)" d="M2.836,7.336a1.662,1.662,0,1,0-2.35,0A1.662,1.662,0,0,0,2.836,7.336Zm6.646,4.3a1.662,1.662,0,1,0,0,2.35A1.662,1.662,0,0,0,9.483,11.633Zm-.05-6.008-.587-.587a.83.83,0,0,0-1.175,0L.537,12.17a.83.83,0,0,0,0,1.175l.587.587a.83.83,0,0,0,1.175,0L9.432,6.8A.83.83,0,0,0,9.432,5.624Z" data-name="Icon awesome-percentage" id="Icon_awesome-percentage"></path>
  </g>
</svg>
