<svg xmlns="http://www.w3.org/2000/svg" class="hidden">
      <symbol id="icon-cart" fill="none" viewBox="0 0 18 19">
        <path d="M3.09333 5.87954L16.2853 5.87945V5.87945C16.3948 5.8795 16.4836 5.96831 16.4836 6.07785V11.4909C16.4836 11.974 16.1363 12.389 15.6603 12.4714C11.3279 13.2209 9.49656 13.2033 5.25251 13.9258C4.68216 14.0229 4.14294 13.6285 4.0774 13.0537C3.77443 10.3963 2.99795 3.58502 2.88887 2.62142C2.75288 1.42015 0.905376 1.51528 0.283581 1.51478" stroke="currentColor"/>
        <path d="M13.3143 16.8554C13.3143 17.6005 13.9183 18.2045 14.6634 18.2045C15.4085 18.2045 16.0125 17.6005 16.0125 16.8554C16.0125 16.1104 15.4085 15.5063 14.6634 15.5063C13.9183 15.5063 13.3143 16.1104 13.3143 16.8554Z" fill="currentColor"/>
        <path d="M3.72831 16.8554C3.72831 17.6005 4.33233 18.2045 5.07741 18.2045C5.8225 18.2045 6.42651 17.6005 6.42651 16.8554C6.42651 16.1104 5.8225 15.5063 5.07741 15.5063C4.33233 15.5063 3.72831 16.1104 3.72831 16.8554Z" fill="currentColor"/>
      </symbol>
    </svg>