<svg id="Isolation_Mode" data-name="Isolation Mode" xmlns="http://www.w3.org/2000/svg" viewBox="0 0 169.28 142.47">
  <defs>
    <style>
      .cls-1 {
        fill: #e2e2e2;
      }

      .cls-1, .cls-2 {
        stroke-width: 0px;
      }

      .cls-2, .cls-3 {
        fill: #2d2f33;
      }

      .cls-3 {
        stroke-miterlimit: 10;
      }

      .cls-3, .cls-4 {
        stroke: #2d2f33;
      }

      .cls-4 {
        fill: none;
        stroke-linecap: round;
        stroke-linejoin: round;
        stroke-width: 3px;
      }
    </style>
  </defs>
  <path class="cls-1" d="m111.56,87.89v-6.99c0-3.75,3.05-6.81,6.81-6.81h22.18v-13.83c0-3.96-3.22-7.18-7.18-7.18H50.19c-1.29,0-2.53-.46-3.51-1.27v55.71c0,3.96,6.04,7.18,9.98,7.18h76.71c3.96,0,7.18-3.22,7.18-7.18v-12.81h-22.18c-3.75,0-6.81-3.05-6.81-6.81Z"/>
  <polygon class="cls-1" points="129.37 38.86 99.74 12.01 64.98 51.07 118.91 51.07 129.37 38.86"/>
  <path class="cls-1" d="m133.37,51.07c.93,0,1.82.14,2.67.4v-3.32c0-2.27-1.84-4.11-4.11-4.11h-4.37l-6.02,7.03h11.83Z"/>
  <polygon class="cls-1" points="73.49 69.14 62.22 69.14 65.27 76.27 73.49 69.14"/>
  <polygon class="cls-1" points="54.3 77.69 73.26 97.65 64.72 77.69 54.3 77.69"/>
  <polygon class="cls-1" points="76.58 97.65 95.54 77.69 85.13 77.69 76.58 97.65"/>
  <polygon class="cls-1" points="65.88 77.69 74.92 98.82 83.96 77.69 65.88 77.69"/>
  <polygon class="cls-1" points="95.52 76.62 88.61 69.55 85.58 76.62 95.52 76.62"/>
  <path class="cls-1" d="m141.41,76.09h-23.04c-2.65,0-4.81,2.16-4.81,4.81v6.99c0,2.65,2.16,4.81,4.81,4.81h23.04c.77,0,1.4-.63,1.4-1.4v-13.81c0-.77-.63-1.4-1.4-1.4Zm-18.28,13.22c-2.71,0-4.92-2.21-4.92-4.92s2.21-4.92,4.92-4.92,4.92,2.21,4.92,4.92-2.21,4.92-4.92,4.92Z"/>
  <path class="cls-1" d="m123.13,81.47c-1.61,0-2.92,1.31-2.92,2.92s1.31,2.92,2.92,2.92,2.92-1.31,2.92-2.92-1.31-2.92-2.92-2.92Z"/>
  <polygon class="cls-1" points="87.62 69.14 76.35 69.14 84.57 76.27 87.62 69.14"/>
  <path class="cls-1" d="m50.19,51.07h5.34s6.25-7.03,6.25-7.03h-11.4c-1.9,0-3.52,1.39-3.69,3.16-.1,1.01.22,1.97.9,2.71.67.73,1.61,1.15,2.6,1.15Z"/>
  <polygon class="cls-1" points="83.34 76.62 74.92 69.31 66.5 76.62 83.34 76.62"/>
  <polygon class="cls-1" points="61.23 69.55 54.32 76.62 64.26 76.62 61.23 69.55"/>
  <path class="cls-3" d="m137.55,74.3v-14.05c0-3.36-1.82-6.29-4.51-7.89v-4.21c0-3.37-2.74-6.11-6.11-6.11h-2.66l2.25-2.63c.35-.41.31-1.03-.09-1.39l-31.1-28.17c-.2-.18-.46-.27-.72-.26-.27.01-.52.13-.69.33l-36.61,41.14h-4.09l6.44-7.24c.1-.08.19-.17.26-.29l26.13-29.36c.37-.41.33-1.04-.08-1.41-.41-.37-1.05-.33-1.41.08l-25.98,29.2h-13.18c-2.81,0-5.21,2.03-5.62,4.67-.05.12-.09.26-.09.4v60.39c0,5.33,7.16,9.18,11.98,9.18h76.71c5.06,0,9.18-4.12,9.18-9.18v-13.02c1.31-.47,2.26-1.72,2.26-3.19v-13.81c0-1.47-.95-2.72-2.26-3.19Zm-10.62-30.25c2.27,0,4.11,1.84,4.11,4.11v3.32c-.84-.26-1.74-.4-2.67-.4h-11.83s6.02-7.03,6.02-7.03h4.37ZM94.73,12.01l29.64,26.84-10.46,12.22h-53.93S94.73,12.01,94.73,12.01Zm-49.35,32.03h11.4l-6.25,7.03h-5.34c-.99,0-1.94-.42-2.6-1.15-.67-.74-.99-1.7-.9-2.71.17-1.77,1.79-3.16,3.69-3.16Zm90.17,63.46c0,3.96-3.22,7.18-7.18,7.18H51.66c-3.94,0-9.98-3.22-9.98-7.18v-55.71c.98.81,2.22,1.27,3.51,1.27h83.18c3.96,0,7.18,3.22,7.18,7.18v13.83h-22.18c-3.75,0-6.81,3.05-6.81,6.81v6.99c0,3.75,3.05,6.81,6.81,6.81h22.18v12.81Zm2.26-16.21c0,.77-.63,1.4-1.4,1.4h-23.04c-2.65,0-4.81-2.16-4.81-4.81v-6.99c0-2.65,2.16-4.81,4.81-4.81h23.04c.77,0,1.4.63,1.4,1.4v13.81Z"/>
  <path class="cls-2" d="m118.13,79.47c-2.71,0-4.92,2.21-4.92,4.92s2.21,4.92,4.92,4.92,4.92-2.21,4.92-4.92-2.21-4.92-4.92-4.92Zm0,7.83c-1.61,0-2.92-1.31-2.92-2.92s1.31-2.92,2.92-2.92,2.92,1.31,2.92,2.92-1.31,2.92-2.92,2.92Z"/>
  <g>
    <g>
      <path class="cls-4" d="m32.31,111.75c0,2.5-2.03,4.53-4.53,4.53s-4.53-2.03-4.53-4.53,2.03-4.53,4.53-4.53,4.53,2.03,4.53,4.53Z"/>
      <path class="cls-4" d="m140.57,29.39c0,2.5-2.03,4.53-4.53,4.53s-4.53-2.03-4.53-4.53,2.03-4.53,4.53-4.53,4.53,2.03,4.53,4.53Z"/>
    </g>
    <g>
      <circle class="cls-1" cx="98.85" cy="122.26" r="3.1"/>
      <path class="cls-1" d="m31.31,47.34c0,1.71-1.39,3.1-3.1,3.1s-3.1-1.39-3.1-3.1,1.39-3.1,3.1-3.1,3.1,1.39,3.1,3.1Z"/>
    </g>
  </g>
</svg>