<svg viewBox="0 0 24 24" height="24" width="24" xmlns="http://www.w3.org/2000/svg">
  <g transform="translate(-36 -861)" data-name="Group 172" id="Group_172">
    <rect fill="#fff" transform="translate(36 861)" height="24" width="24" data-name="Rectangle 226" id="Rectangle_226"></rect>
    <g transform="translate(-4316 -1747)" data-name="Group 171" id="Group_171">
      <g transform="translate(4352 2611)" id="buy-one-get-one-free_6977796">
        <path transform="translate(0 -52.845)" d="M.686,60.959l1.66,0h0A1.863,1.863,0,0,0,3.667,60.4a2.664,2.664,0,0,0-.078-3.69c1.031-1.428.2-3.857-1.573-3.865H.688A.688.688,0,0,0,0,53.533v6.738a.688.688,0,0,0,.686.688Zm.69-6.738h.64c.346,0,.649.466.649,1s-.3,1-.649,1h-.64Zm0,3.369h.975c.347,0,.651.467.651,1a1.2,1.2,0,0,1-.306.836.5.5,0,0,1-.344.163h0l-.974,0Z" data-name="Path 146" id="Path_146"></path>
        <path transform="translate(-112.442 -52.845)" d="M121.532,52.845a.688.688,0,0,0-.688.688v4.851c-.06,1.591-1.561,1.59-1.62,0V53.533a.688.688,0,0,0-1.376,0v4.851c.115,3.415,4.258,3.413,4.373,0V53.533A.688.688,0,0,0,121.532,52.845Z" data-name="Path 147" id="Path_147"></path>
        <path transform="translate(-226.007 -52.842)" d="M240.959,52.885a.688.688,0,0,0-.884.407l-.908,2.459L238.2,53.28a.688.688,0,0,0-1.282.5l1.578,4.036-.005,2.45a.688.688,0,0,0,.687.689h0a.688.688,0,0,0,.688-.687l.005-2.459,1.492-4.043A.688.688,0,0,0,240.959,52.885Z" data-name="Path 148" id="Path_148"></path>
        <path transform="translate(0 -256.223)" d="M2.243,267.376h.062a1.034,1.034,0,0,1,.867,1.122.688.688,0,1,0,1.376,0A2.384,2.384,0,0,0,2.306,266H2.243A2.384,2.384,0,0,0,0,268.5v3.814a2.384,2.384,0,0,0,2.243,2.5h.062a2.384,2.384,0,0,0,2.243-2.5v-1.123a.688.688,0,0,0-.688-.688H3.007a.688.688,0,0,0,0,1.376h.166v.435a1.034,1.034,0,0,1-.867,1.122H2.243a1.034,1.034,0,0,1-.867-1.122V268.5a1.034,1.034,0,0,1,.867-1.122Z" data-name="Path 149" id="Path_149"></path>
        <path transform="translate(-124.201 -258.021)" d="M133.187,275.191h-1.639v-2.137h.8a.688.688,0,0,0,0-1.376h-.8V269.26h1.47a.688.688,0,0,0,0-1.376H130.86a.688.688,0,0,0-.688.688v7.306a.688.688,0,0,0,.688.688h2.327A.688.688,0,0,0,133.187,275.191Z" data-name="Path 150" id="Path_150"></path>
        <path transform="translate(-225.458 -259.563)" d="M239.96,269.5H236.98a.688.688,0,0,0,0,1.376h.765v6.639a.688.688,0,0,0,1.376,0v-6.639h.839A.688.688,0,0,0,239.96,269.5Z" data-name="Path 151" id="Path_151"></path>
      </g>
      <path transform="translate(4046.666 2531.127)" d="M328.88,95.258h-1.51l-.053-14.592a.725.725,0,0,0-.628-.794h-1.663c-.166,0-.482.281-.6.43h0a36.312,36.312,0,0,0-2,3.228v2.042c0,.438-.132.987.215.987h1.67v8.7h-1.346c-.347,0-.539.248-.539.686v1.419c0,.438,0,1.1.351,1.1h5.931a.639.639,0,0,0,.628-.7V95.944C329.334,95.506,329.227,95.258,328.88,95.258Z" data-name="Path 160" id="Path_160"></path>
    </g>
  </g>
</svg>
