<svg id="Isolation_Mode" data-name="Isolation Mode" xmlns="http://www.w3.org/2000/svg" viewBox="0 0 126 127.6">
  <defs>
    <style>
      .cls-1 {
        fill: #e2e2e2;
        stroke-width: 0px;
      }

      .cls-2 {
        fill: #2d2f33;
        stroke-miterlimit: 10;
      }

      .cls-2, .cls-3 {
        stroke: #2d2f33;
      }

      .cls-3 {
        fill: none;
        stroke-linecap: round;
        stroke-linejoin: round;
        stroke-width: 3px;
      }
    </style>
  </defs>
  <g>
    <path class="cls-1" d="m60.66,27.96c-17.44,0-31.63,14.19-31.63,31.63s14.19,31.63,31.63,31.63,31.63-14.19,31.63-31.63-14.19-31.63-31.63-31.63Zm13.08,39.25h-26.17c-.59,0-1.07-.48-1.07-1.07s.48-1.07,1.07-1.07h26.17c.59,0,1.07.48,1.07,1.07s-.48,1.07-1.07,1.07Zm0-13.08h-26.17c-.59,0-1.07-.48-1.07-1.07s.48-1.07,1.07-1.07h26.17c.59,0,1.07.48,1.07,1.07s-.48,1.07-1.07,1.07Z"/>
    <path class="cls-2" d="m100.49,12.81c-.13-.05-.27-.08-.41-.08h-22.9c-.59,0-1.07.48-1.07,1.07s.48,1.07,1.07,1.07h20.3l-20.1,20.1c-6.05-5.68-14.17-9.17-23.1-9.17-18.63,0-33.78,15.16-33.78,33.78s14.58,33.19,32.71,33.76v10.96h-10.37c-.59,0-1.07.48-1.07,1.07s.48,1.07,1.07,1.07h10.37v8.74c0,.59.48,1.07,1.07,1.07s1.07-.48,1.07-1.07v-8.74h10.37c.59,0,1.07-.48,1.07-1.07s-.48-1.07-1.07-1.07h-10.37v-10.96c18.13-.57,32.71-15.49,32.71-33.76,0-8.93-3.49-17.05-9.16-23.1l20.1-20.1v20.3c0,.59.48,1.07,1.07,1.07s1.07-.48,1.07-1.07V13.8c0-.14-.03-.28-.08-.41-.11-.26-.32-.47-.58-.58Zm-46.2,78.42c-17.44,0-31.63-14.19-31.63-31.63s14.19-31.63,31.63-31.63,31.63,14.19,31.63,31.63-14.19,31.63-31.63,31.63Z"/>
    <path class="cls-2" d="m67.37,51.98h-26.17c-.59,0-1.07.48-1.07,1.07s.48,1.07,1.07,1.07h26.17c.59,0,1.07-.48,1.07-1.07s-.48-1.07-1.07-1.07Z"/>
    <path class="cls-2" d="m67.37,65.06h-26.17c-.59,0-1.07.48-1.07,1.07s.48,1.07,1.07,1.07h26.17c.59,0,1.07-.48,1.07-1.07s-.48-1.07-1.07-1.07Z"/>
  </g>
  <g>
    <circle class="cls-3" cx="103.52" cy="56.4" r="4.5"/>
    <circle class="cls-3" cx="17.21" cy="94.97" r="4.5"/>
  </g>
  <path class="cls-1" d="m97.68,91.23c0,1.7-1.38,3.08-3.08,3.08s-3.08-1.38-3.08-3.08,1.38-3.08,3.08-3.08,3.08,1.38,3.08,3.08Z"/>
  <path class="cls-1" d="m34.04,18.61c0,1.7-1.38,3.08-3.08,3.08s-3.08-1.38-3.08-3.08,1.38-3.08,3.08-3.08,3.08,1.38,3.08,3.08Z"/>
</svg>