<svg id="Icons" xmlns="http://www.w3.org/2000/svg" viewBox="0 0 128 128"><defs><style>.cls-1{fill:#192733;}.cls-2{fill:#eaf0f6;}.cls-3{fill:#2e475d;}.cls-4{fill:#fcead7;}.cls-5{fill:#fef4ea;}.cls-6{fill:#ff5c35;}.cls-7{fill:#ffcec2;}.cls-8{fill:#ffebc9;}.cls-9{fill:#cae7d3;}.cls-10{opacity:0.05;}.cls-11{fill:#b6c7d6;}.cls-12{fill:#7691ad;}.cls-13{fill:#ff7a59;}.cls-14{fill:#ffcd78;}.cls-15{fill:#ffbc4b;}.cls-16{fill:#d49134;}</style></defs><rect class="cls-1" x="8.51" y="29.08" width="110.89" height="69.17" rx="6.33"/><path class="cls-2" d="M113.07,98.65H14.85a6.74,6.74,0,0,1-6.74-6.73V35.41a6.74,6.74,0,0,1,6.74-6.73h98.22a6.74,6.74,0,0,1,6.73,6.73V91.92A6.74,6.74,0,0,1,113.07,98.65ZM14.85,29.48a5.94,5.94,0,0,0-5.94,5.93V91.92a5.94,5.94,0,0,0,5.94,5.93h98.22A5.94,5.94,0,0,0,119,91.92V35.41a5.94,5.94,0,0,0-5.93-5.93Z"/><rect class="cls-3" x="13.04" y="34.17" width="101.97" height="60.46" transform="translate(-0.07 0.07) rotate(-0.06)"/><rect class="cls-4" x="18.1" y="20.85" width="91.5" height="73.78" transform="translate(-0.07 0.07) rotate(-0.06)"/><rect class="cls-5" x="18.1" y="20.86" width="61.89" height="73.78" transform="translate(-0.07 0.06) rotate(-0.06)"/><rect class="cls-6" x="18.02" y="20.83" width="91.55" height="4.24" transform="translate(-0.03 0.07) rotate(-0.06)"/><circle class="cls-7" cx="20.32" cy="23.16" r="0.77"/><circle class="cls-8" cx="22.63" cy="23.16" r="0.77"/><circle class="cls-9" cx="24.97" cy="23.15" r="0.77"/><g class="cls-10"><ellipse cx="64" cy="105.49" rx="60" ry="1.74" transform="translate(-0.12 0.07) rotate(-0.06)"/></g><path class="cls-11" d="M8.84,104.9l110.2-.13c2.08,0,5-3.66,4.95-6.49L4,98.42C4,101.24,6.75,104.9,8.84,104.9Z"/><path class="cls-12" d="M65.15,98.32H55.32c0,1.65.92,2.28,1.24,2.28H73.09c.33,0,1.24-.63,1.24-2.28Z"/><rect class="cls-13" x="64.19" y="33.42" width="19.12" height="61.19" transform="translate(-0.21 0.25) rotate(-0.19)"/><rect class="cls-14" x="41.23" y="60.67" width="19.12" height="33.94" transform="translate(-0.26 0.17) rotate(-0.19)"/><rect class="cls-6" x="18.12" y="80.09" width="19.12" height="14.51" transform="translate(-0.29 0.09) rotate(-0.19)"/><rect class="cls-13" x="18.12" y="80.11" width="9.56" height="14.51" transform="translate(-0.29 0.08) rotate(-0.19)"/><rect class="cls-15" x="50.79" y="60.68" width="9.56" height="33.94" transform="translate(-0.26 0.19) rotate(-0.19)"/><rect class="cls-6" x="72.95" y="33.44" width="10.36" height="61.19" transform="translate(-0.21 0.26) rotate(-0.19)"/><rect class="cls-14" x="87.13" y="21.46" width="19.12" height="73.15" transform="translate(193.58 115.74) rotate(179.81)"/><rect class="cls-15" x="96.69" y="21.44" width="9.56" height="73.15" transform="translate(203.14 115.69) rotate(179.81)"/><polygon class="cls-14" points="116.17 22.36 96.51 2.83 76.97 22.49 116.17 22.36"/><polygon class="cls-16" points="87.01 22.59 106.13 22.52 106.17 34.94 87.01 22.59"/><polygon class="cls-15" points="116.17 22.36 96.51 2.83 96.57 22.43 116.17 22.36"/></svg>