<svg id="Layer_2" data-name="Layer 2" xmlns="http://www.w3.org/2000/svg" viewBox="0 0 128 128"><defs><style>.cls-1{fill:#ff7a59;}.cls-2{fill:#ff5c35;}.cls-3{fill:#fff;}.cls-4{fill:#a37467;}.cls-5{fill:#af7e6d;}.cls-6{fill:#ffcfbc;}.cls-7{fill:#ffb89b;}.cls-8{fill:#2e475d;}.cls-9{fill:#516f90;}</style></defs><path class="cls-1" d="M97.23,17C81,17,67.43,7.13,67.3,7L64,4.6,60.7,7C60.57,7.13,47,17,30.77,17H25.24v25.9A53.68,53.68,0,0,0,62.25,94l1.75.58L65.75,94a53.68,53.68,0,0,0,37-51V17Z"/><path class="cls-2" d="M102.76,42.91V17H97.23C81,17,67.43,7.13,67.3,7L64,4.6V94.54L65.75,94A53.68,53.68,0,0,0,102.76,42.91Z"/><g id="Shape"><path class="cls-3" d="M58.39,61.25a3.16,3.16,0,0,1-2.25-.93L46.08,50.25a3.18,3.18,0,1,1,4.49-4.5l7.82,7.82,19-19a3.16,3.16,0,0,1,2.24-.93h0a3.14,3.14,0,0,1,2.24.93,3.19,3.19,0,0,1,0,4.5L60.64,60.31a3.17,3.17,0,0,1-2.25.94Z"/></g><path class="cls-4" d="M92.57,101.41l-.4-.84L92,98.67,58.45,77l-1.88-1.23-.52-.2a19.19,19.19,0,0,0-5.7-1.19L45,74.12a18.39,18.39,0,0,0-2.1,0,8.28,8.28,0,0,1-3.68-.61l-3.86-1.62-1.07.76-8.88,22,.49,1.16,7.48,4.72,2.36,1.66,1.5,0,23.34,16.48.22,1.52,3.22,2.37a4.44,4.44,0,0,0,5.82-.44,4.37,4.37,0,0,0,.39-5.56l1.61,1.19a4.44,4.44,0,0,0,5.95-.57,4.37,4.37,0,0,0,.06-5.7l.9.67a4.44,4.44,0,0,0,5.75-.36,4.37,4.37,0,0,0,.28-5.88l1.35,1a4.35,4.35,0,0,0,6.41-5.57Z"/><path class="cls-5" d="M77.88,111.55l.9.67a4.44,4.44,0,0,0,5.75-.36,4.37,4.37,0,0,0,.28-5.88l1.35,1a4.35,4.35,0,0,0,6.41-5.57h0l-.4-.84L92,98.67,58.45,77l-1.88-1.23-.52-.2a19.19,19.19,0,0,0-5.7-1.19L45,74.12a18.39,18.39,0,0,0-2.1,0,8.28,8.28,0,0,1-3.68-.61l-3.86-1.62-1.07.76-1.7,4.22Z"/><path class="cls-6" d="M35.68,108.29a3.85,3.85,0,0,1-.45-5.42l3.6-4.22a3.84,3.84,0,1,1,5.86,5l-3.59,4.22A3.85,3.85,0,0,1,35.68,108.29Z"/><path class="cls-6" d="M41.54,113.26a3.84,3.84,0,0,1-.44-5.42l3.59-4.22a3.85,3.85,0,0,1,5.87,5L47,112.82A3.84,3.84,0,0,1,41.54,113.26Z"/><path class="cls-7" d="M47.41,118.24a3.85,3.85,0,0,1-.45-5.42l3.6-4.22a3.85,3.85,0,1,1,5.87,5l-3.6,4.22A3.85,3.85,0,0,1,47.41,118.24Z"/><path class="cls-7" d="M53.28,123.21a3.85,3.85,0,0,1-.45-5.42l3.6-4.22a3.85,3.85,0,1,1,5.86,5l-3.59,4.22A3.84,3.84,0,0,1,53.28,123.21Z"/><path class="cls-6" d="M92.43,72.71,91,72,85.41,74a9.66,9.66,0,0,1-4.88.48L64,71.88a5.86,5.86,0,0,0-5.09,1.66L45.31,84.84a2.32,2.32,0,0,0-.37,3.63c2.27,2.15,6.93,4,15-3.23,0,0,6.28,9.88,19.29,5.77l13,9.56,8.09-5.2.4-.87Z"/><path class="cls-7" d="M92.43,72.71,91,72,87.4,73.28l-2.8,2.81L69.15,91.53A18.27,18.27,0,0,0,79.22,91l13,9.56,8.09-5.2.4-.87Z"/><path class="cls-8" d="M86.63,67.47l9.88-4.84a3.44,3.44,0,0,1,4.5,1.83l12.72,26a3.45,3.45,0,0,1-1.31,4.68l-9.89,4.84A3.43,3.43,0,0,1,98,98.1L85.32,72.15A3.44,3.44,0,0,1,86.63,67.47Z"/><path class="cls-9" d="M103.83,90.06a2.38,2.38,0,1,1-1.09,3.19A2.38,2.38,0,0,1,103.83,90.06Z"/><path class="cls-8" d="M37.59,63.3l9,6.3a3.43,3.43,0,0,1,.58,4.82L30.67,98.13A3.43,3.43,0,0,1,26,99.25l-9-6.29a3.45,3.45,0,0,1-.58-4.82L32.87,64.43A3.44,3.44,0,0,1,37.59,63.3Z"/><path class="cls-9" d="M26.18,89.3a2.38,2.38,0,1,1-3.32.6A2.4,2.4,0,0,1,26.18,89.3Z"/></svg>