<svg id="Icons" xmlns="http://www.w3.org/2000/svg" xmlns:xlink="http://www.w3.org/1999/xlink" viewBox="0 0 128 128"><defs><style>.cls-1,.cls-19{fill:none;}.cls-2{fill:#ff7a59;}.cls-3{fill:#ff5c35;}.cls-4{fill:#ff8933;}.cls-5{fill:#ffdbc1;}.cls-6{fill:#cc6d29;opacity:0.65;}.cls-7{fill:#f9b485;}.cls-8{fill:#b2d1e7;}.cls-9{fill:#3e5974;}.cls-10{fill:#408ec5;}.cls-11{fill:#0068b1;}.cls-12{opacity:0.05;}.cls-13,.cls-14{fill:#fff;}.cls-13{stroke:#ffdbc1;stroke-width:0.5px;}.cls-13,.cls-19{stroke-miterlimit:10;}.cls-15{clip-path:url(#clip-path);}.cls-16{clip-path:url(#clip-path-3);}.cls-17{fill:#d44325;}.cls-18{fill:#eaf0f6;}.cls-19{stroke:#d49134;stroke-width:2.07px;}</style><clipPath id="clip-path"><rect class="cls-1" x="44.89" y="80.61" width="8.29" height="8.68"/></clipPath><clipPath id="clip-path-3"><rect class="cls-1" x="28.22" y="14.44" width="20.16" height="29.65"/></clipPath></defs><g id="mobile_payment" data-name="mobile payment"><path class="cls-2" d="M4.15,13.44a11.59,11.59,0,0,0,9.3-9.3.18.18,0,0,1,.35,0,11.6,11.6,0,0,0,9.3,9.3.18.18,0,0,1,0,.36,11.57,11.57,0,0,0-9.3,9.29.18.18,0,0,1-.35,0,11.56,11.56,0,0,0-9.3-9.29A.18.18,0,0,1,4.15,13.44Z"/><path class="cls-3" d="M17.68,24a5.51,5.51,0,0,0,4.42-4.41.09.09,0,0,1,.17,0A5.48,5.48,0,0,0,26.68,24a.09.09,0,0,1,0,.17,5.48,5.48,0,0,0-4.41,4.41.09.09,0,0,1-.17,0,5.51,5.51,0,0,0-4.42-4.41A.09.09,0,0,1,17.68,24Z"/><path class="cls-4" d="M111.27,117.9a7.73,7.73,0,0,0,6.2-6.2.12.12,0,0,1,.23,0,7.73,7.73,0,0,0,6.2,6.2.12.12,0,0,1,0,.23,7.73,7.73,0,0,0-6.2,6.2.12.12,0,0,1-.23,0,7.73,7.73,0,0,0-6.2-6.2A.12.12,0,0,1,111.27,117.9Z"/></g><rect class="cls-5" x="80.06" y="65.8" width="15.68" height="10.52" transform="translate(175.79 142.12) rotate(-180)"/><path class="cls-6" d="M80.06,70.77a24.28,24.28,0,0,0,4.37.35l.94,0c3.21-.18,9.06.07,11.33-4.9v-.4H80.06Z"/><path class="cls-5" d="M88,24.58h0a15.53,15.53,0,0,1,15.53,15.54V54.3A15.53,15.53,0,0,1,88,69.83h0A15.53,15.53,0,0,1,72.46,54.3V40.12A15.54,15.54,0,0,1,88,24.58Z"/><path class="cls-7" d="M88,24.55h0a15.4,15.4,0,0,1,4.21.58,15.52,15.52,0,0,0-11.31,15V54.3a15.52,15.52,0,0,0,11.31,15,15.4,15.4,0,0,1-4.21.58h0A15.53,15.53,0,0,1,72.47,54.3V40.08A15.53,15.53,0,0,1,88,24.55Z"/><path class="cls-3" d="M79.59,72.11a12.49,12.49,0,0,0,16.85,0A24,24,0,0,1,112,94.6v11.89H64V94.6A24,24,0,0,1,79.59,72.11Z"/><path class="cls-8" d="M88,77.41a12.46,12.46,0,0,1-9.78-4.74c.44-.2.89-.38,1.35-.56a12.49,12.49,0,0,0,16.85,0c.46.17.91.35,1.35.55A12.43,12.43,0,0,1,88,77.41Z"/><path class="cls-7" d="M90.9,52a2.89,2.89,0,0,1-5.78,0Z"/><path class="cls-9" d="M105,40.66a17.08,17.08,0,0,0-33.8,0H68.27a20,20,0,0,1,39.62,0Z"/><path class="cls-9" d="M92.92,64.24c4.21-.36,7.31-1.83,9.21-4.38A11.83,11.83,0,0,0,104,51.15l-2,.4,1-.2-1,.2a9.9,9.9,0,0,1-1.52,7.13C99,60.74,96.36,62,92.75,62.25Z"/><rect class="cls-10" x="82.64" y="60.57" width="12.41" height="4.36" rx="1.94" transform="translate(177.68 125.5) rotate(-180)"/><path class="cls-11" d="M103.61,53.5a7.61,7.61,0,0,0,0-15.22"/><path class="cls-10" d="M101,38.29h.11A2.76,2.76,0,0,1,103.85,41v9.7a2.76,2.76,0,0,1-2.76,2.76H101a0,0,0,0,1,0,0V38.29A0,0,0,0,1,101,38.29Z" transform="translate(204.83 91.8) rotate(-180)"/><path class="cls-11" d="M72.15,53.5a7.61,7.61,0,1,1,0-15.22"/><path class="cls-10" d="M71.92,38.29H72A2.76,2.76,0,0,1,74.79,41v9.7A2.76,2.76,0,0,1,72,53.52h-.11a0,0,0,0,1,0,0V38.29A0,0,0,0,1,71.92,38.29Z"/><g class="cls-12"><ellipse cx="49.03" cy="105.57" rx="0.92" ry="31.81" transform="translate(-56.59 154.48) rotate(-89.94)"/></g><path class="cls-13" d="M76.56,105.25,22,105.19c-1,0-2.45-1.94-2.45-3.44l59.38.07C79,103.31,77.59,105.25,76.56,105.25Z"/><rect class="cls-14" x="19.66" y="65.05" width="58.8" height="36.68" rx="3.36" transform="translate(98.11 166.78) rotate(-180)"/><path class="cls-5" d="M19.45,98.37v-30A3.57,3.57,0,0,1,23,64.84H75.1a3.58,3.58,0,0,1,3.57,3.57v30a3.58,3.58,0,0,1-3.57,3.57H23A3.57,3.57,0,0,1,19.45,98.37ZM23,65.27a3.15,3.15,0,0,0-3.15,3.14v30A3.15,3.15,0,0,0,23,101.52H75.1a3.15,3.15,0,0,0,3.14-3.15v-30a3.15,3.15,0,0,0-3.14-3.14Z"/><g id="HubSpot_Sprocket_White_" data-name="HubSpot Sprocket (White)"><g class="cls-15"><g class="cls-15"><path class="cls-3" d="M51.26,83.47v-1a.78.78,0,0,0,.46-.71v0a.79.79,0,0,0-.8-.79h0a.79.79,0,0,0-.8.79v0a.78.78,0,0,0,.46.71v1a2.26,2.26,0,0,0-1.07.47l-2.84-2.21a.83.83,0,0,0,0-.22.9.9,0,1,0-.9.89.83.83,0,0,0,.44-.12L49,84.45a2.25,2.25,0,0,0-.38,1.25,2.21,2.21,0,0,0,.41,1.3l-.85.85a.66.66,0,0,0-.21,0,.74.74,0,1,0,.74.74.66.66,0,0,0,0-.21l.84-.84a2.24,2.24,0,0,0,1.37.46,2.26,2.26,0,0,0,.35-4.5m-.35,3.4a1.17,1.17,0,1,1,1.16-1.17,1.16,1.16,0,0,1-1.16,1.17"/></g></g></g><path class="cls-3" d="M54,17.82H43c-5.39,0-9.76,4.87-9.76,10.87S37.6,39.57,43,39.57H63.77V28.69c0-6-4.37-10.87-9.76-10.87"/><g class="cls-16"><path class="cls-17" d="M54,17.82H43c-5.39,0-9.76,4.87-9.76,10.87S37.6,39.57,43,39.57H63.77V28.69c0-6-4.37-10.87-9.76-10.87"/></g><path class="cls-14" d="M46.65,36H50V33.3a5.85,5.85,0,0,0,.93-.38L52.8,34.8l2.36-2.36-1.88-1.88a5.39,5.39,0,0,0,.39-.93h2.66V26.29H53.67a4.8,4.8,0,0,0-.39-.93l1.88-1.88L52.8,21.11,50.92,23a5.08,5.08,0,0,0-.93-.39V20H46.65v2.66a5.39,5.39,0,0,0-.93.39l-1.88-1.89-2.36,2.37,1.88,1.88a6.48,6.48,0,0,0-.39.93H40.32v3.34H43a7.61,7.61,0,0,0,.39.93l-1.88,1.88,2.36,2.36,1.88-1.88a6.26,6.26,0,0,0,.93.38Zm-1.1-8a2.77,2.77,0,1,1,2.77,2.77A2.78,2.78,0,0,1,45.55,28Z"/><path class="cls-18" d="M46.65,36h1.67V30.73a2.78,2.78,0,0,1,0-5.55V20H46.65v2.66a5.39,5.39,0,0,0-.93.39l-1.88-1.89-2.36,2.37,1.88,1.88a6.48,6.48,0,0,0-.39.93H40.32v3.34H43a7.61,7.61,0,0,0,.39.93l-1.88,1.88,2.36,2.36,1.88-1.88a6.26,6.26,0,0,0,.93.38Z"/><line class="cls-19" x1="4" y1="106.41" x2="124" y2="106.41"/></svg>